<svg width="40" height="40" viewBox="0 0 40 40" fill="none" xmlns="http://www.w3.org/2000/svg">
<g clip-path="url(#clip0_325_5496)">
<path d="M39.4017 24.8368C36.7295 35.5568 25.8684 42.0734 15.1637 39.401C4.44341 36.7288 -2.07315 25.8682 0.599197 15.1637C3.27138 4.44366 14.1167 -2.0729 24.837 0.599443C35.5417 3.25601 42.074 14.1166 39.4017 24.8368Z" fill="url(#paint0_linear_325_5496)"/>
<path d="M29.5234 17.5078C29.9141 14.8516 27.8984 13.4141 25.1172 12.4609L26.0234 8.85156L23.8359 8.30469L22.9609 11.8203C22.3828 11.6797 21.7891 11.5391 21.1953 11.4141L22.0703 7.88281L19.8828 7.33594L18.9922 10.9297C18.5078 10.8203 18.0391 10.7109 17.5859 10.6016V10.5859L14.5547 9.83594L13.9766 12.1797C13.9766 12.1797 15.6016 12.5547 15.5703 12.5703C16.4609 12.7891 16.6172 13.3828 16.5859 13.8516L15.5547 17.9609C15.6172 17.9766 15.6953 17.9922 15.7891 18.0391C15.7109 18.0234 15.6328 18.0078 15.5547 17.9766L14.1172 23.7266C14.0078 23.9922 13.7266 24.3984 13.1172 24.2422C13.1328 24.2734 11.5234 23.8516 11.5234 23.8516L10.4297 26.3672L13.2891 27.0859C13.8203 27.2266 14.3359 27.3516 14.8516 27.4922L13.9453 31.1328L16.1328 31.6797L17.0391 28.0703C17.6328 28.2266 18.2266 28.3828 18.7891 28.5234L17.8984 32.1172L20.0859 32.6641L20.9922 29.0234C24.7422 29.7266 27.5547 29.4453 28.7266 26.0547C29.6797 23.3359 28.6797 21.7578 26.7109 20.7266C28.1641 20.3984 29.2422 19.4453 29.5234 17.5078ZM24.5078 24.5391C23.8359 27.2578 19.2422 25.7891 17.7578 25.4141L18.9609 20.5859C20.4453 20.9609 25.2266 21.6953 24.5078 24.5391ZM25.1953 17.4609C24.5703 19.9453 20.7578 18.6797 19.5234 18.3672L20.6172 13.9922C21.8516 14.3047 25.8359 14.8828 25.1953 17.4609Z" fill="white"/>
</g>
<defs>
<linearGradient id="paint0_linear_325_5496" x1="19.9892" y1="-0.00935585" x2="19.9892" y2="39.9962" gradientUnits="userSpaceOnUse">
<stop stop-color="#F9AA4B"/>
<stop offset="1" stop-color="#F7931A"/>
</linearGradient>
<clipPath id="clip0_325_5496">
<rect width="40" height="40" fill="white"/>
</clipPath>
</defs>
</svg>
