<svg width="24" height="24" viewBox="0 0 24 24" fill="none" xmlns="http://www.w3.org/2000/svg">
<path d="M12 0C18.6273 0 24 5.37267 24 12C24 18.6273 18.6273 24 12 24C5.37267 24 0 18.6273 0 12C0 5.37267 5.37267 0 12 0Z" fill="#0052FF"/>
<path d="M12.0048 16.217C9.67248 16.217 7.78788 14.3272 7.78788 12.0001C7.78788 9.67297 9.67768 7.78316 12.0048 7.78316C14.0924 7.78316 15.8261 9.30333 16.1592 11.2973H20.4074C20.0482 6.96581 16.4248 3.56104 11.9996 3.56104C7.34016 3.56104 3.56055 7.34065 3.56055 12.0001C3.56055 16.6595 7.34016 20.4391 11.9996 20.4391C16.4248 20.4391 20.0482 17.0344 20.4074 12.7029H16.154C15.8209 14.6968 14.0924 16.217 12.0048 16.217Z" fill="white"/>
</svg>
