<svg width="40" height="40" viewBox="0 0 40 40" fill="none" xmlns="http://www.w3.org/2000/svg">
<path opacity="0.2" d="M20 40C31.0457 40 40 31.0457 40 20C40 8.9543 31.0457 0 20 0C8.9543 0 0 8.9543 0 20C0 31.0457 8.9543 40 20 40Z" fill="#E2BD23"/>
<path d="M20 40C31.0457 40 40 31.0457 40 20C40 8.9543 31.0457 0 20 0C8.9543 0 0 8.9543 0 20C0 31.0457 8.9543 40 20 40Z" fill="#F0C30B"/>
<mask id="mask0_325_5499" style="mask-type:alpha" maskUnits="userSpaceOnUse" x="0" y="0" width="40" height="40">
<path d="M20 40C31.0457 40 40 31.0457 40 20C40 8.9543 31.0457 0 20 0C8.9543 0 0 8.9543 0 20C0 31.0457 8.9543 40 20 40Z" fill="white"/>
</mask>
<g mask="url(#mask0_325_5499)">
<path fill-rule="evenodd" clip-rule="evenodd" d="M20.3315 11.978H14.8707V19.2308H11.5391V21.6484H14.8707V28.9011H20.3315C23.2138 28.9011 23.8349 28.5992 25.0771 27.9955C25.1735 27.9487 25.2737 27.9 25.379 27.8495C26.8402 27.1484 27.9758 26.1612 28.7857 24.8879C29.5956 23.6147 30.0006 22.1319 30.0006 20.4396C30.0006 18.7473 29.5956 17.2645 28.7857 15.9912C27.9758 14.7179 26.8402 13.7308 25.379 13.0297C23.9177 12.3286 22.2352 11.978 20.3315 11.978ZM18.9287 21.6484V25.6857H20.1311C21.8845 25.6857 23.2831 25.2143 24.3269 24.2714C25.3706 23.3286 25.8925 22.0513 25.8925 20.4396C25.8925 18.8278 25.3706 17.5506 24.3269 16.6077C23.2831 15.6648 21.8845 15.1934 20.1311 15.1934H18.9287V19.2308H22.8114V21.6484H18.9287Z" fill="white"/>
</g>
</svg>
