<svg width="40" height="40" viewBox="0 0 40 40" fill="none" xmlns="http://www.w3.org/2000/svg">
<g clip-path="url(#clip0_325_5486)">
<circle cx="20" cy="20" r="20" fill="#5235E8"/>
<path d="M20.4429 5.0426V5.0568C20.4571 5.1278 20.4571 5.213 20.4571 5.29819V15.5362C20.4429 15.593 20.4003 15.6072 20.3577 15.6356C20.0595 15.7776 19.7755 15.9054 19.4773 16.0332C19.0655 16.2178 18.6395 16.4166 18.2277 16.6012L16.7367 17.2828C16.3249 17.4674 15.9132 17.652 15.5156 17.8365C15.0328 18.0637 14.5358 18.2767 14.053 18.5039C13.6412 18.6885 13.2294 18.8873 12.8034 19.0719C12.4626 19.2281 12.1218 19.3701 11.7952 19.5263C11.7668 19.5405 11.7384 19.5547 11.71 19.5547C11.6958 19.5547 11.6958 19.5547 11.6816 19.5405L12.065 18.9015C12.8034 17.6804 13.5276 16.4734 14.266 15.2522C15.047 13.9458 15.8422 12.6395 16.6231 11.3331C17.3473 10.1261 18.0857 8.91912 18.8099 7.71215C19.3353 6.83176 19.8749 5.95138 20.4003 5.071C20.4145 5.0426 20.4287 5.0284 20.4287 5H20.4429C20.4287 5.0142 20.4429 5.0284 20.4429 5.0426Z" fill="#F3F3F3"/>
<path d="M29.1591 19.5406L29.1733 19.5548L27.086 20.7902L20.5257 24.6667C20.4973 24.6809 20.4689 24.6951 20.4547 24.7093C20.4121 24.7093 20.4121 24.6667 20.4121 24.6525V24.5247V15.7493C20.4121 15.7067 20.4121 15.6499 20.4263 15.6073C20.4405 15.5505 20.4831 15.5647 20.5257 15.5789C20.7103 15.6641 20.9091 15.7493 21.0937 15.8345C21.6475 16.0901 22.2013 16.3456 22.7551 16.587C23.2379 16.8 23.7064 17.0272 24.1892 17.2402C24.672 17.4532 25.1548 17.6804 25.6376 17.8934C26.0494 18.078 26.4754 18.2768 26.8872 18.4614C27.299 18.646 27.725 18.8448 28.1368 19.0294C28.4634 19.1714 28.7899 19.3276 29.1165 19.4696C29.1165 19.5122 29.1307 19.5264 29.1591 19.5406Z" fill="#8A8DA7"/>
<path d="M20.4409 33.5271C20.4409 33.5413 20.4267 33.5555 20.4267 33.5697H20.4125C20.4125 33.5413 20.3841 33.5271 20.3699 33.4987C19.4895 32.2634 18.6092 31.0138 17.7288 29.7784C16.8342 28.5146 15.9254 27.2367 15.0308 25.9729C14.1646 24.7517 13.2843 23.5163 12.4181 22.2952C12.1909 21.9686 11.9637 21.6562 11.7365 21.3296C11.7223 21.3012 11.7081 21.287 11.6797 21.2444C11.7223 21.2444 11.7507 21.2728 11.7649 21.287C13.0003 22.0112 14.2214 22.7354 15.4568 23.4595C16.8768 24.2973 18.2826 25.1351 19.7025 25.9729L20.4267 26.3989C20.4551 26.4273 20.4551 26.4557 20.4551 26.4841V33.3284C20.4551 33.3994 20.4551 33.4703 20.4409 33.5271Z" fill="#F3F3F3"/>
<path d="M11.666 19.569V19.5548C12.1204 19.356 12.5606 19.143 13.015 18.9442C13.5972 18.6744 14.1794 18.4188 14.7616 18.149C15.2017 17.9503 15.6561 17.7373 16.0963 17.5385C16.7495 17.2403 17.3885 16.9563 18.0417 16.6581C18.4819 16.4593 18.9221 16.2605 19.3765 16.0475C19.6889 15.9055 20.0155 15.7635 20.3278 15.6215C20.3562 15.6073 20.3988 15.5931 20.413 15.5647C20.4272 15.5647 20.4272 15.5789 20.413 15.5931V24.6099C20.413 24.6525 20.3988 24.6951 20.4272 24.7235C20.3988 24.7661 20.3704 24.7235 20.3562 24.7093C20.2284 24.6383 20.1006 24.5673 19.9729 24.4821C17.2323 22.8634 14.4776 21.2304 11.737 19.6116C11.7228 19.5974 11.6944 19.5832 11.666 19.569Z" fill="#C5C8D9"/>
<path d="M29.1322 21.2444H29.1464C29.1464 21.2728 29.118 21.3012 29.1038 21.3296C26.491 25.0073 23.8783 28.6992 21.2655 32.377C20.9957 32.7604 20.7117 33.1438 20.4419 33.5271C20.4277 33.5129 20.4277 33.4987 20.4277 33.4846V33.3994V26.5125V26.3847C21.0241 26.0297 21.6063 25.6889 22.2027 25.3339C24.5031 23.9707 26.8034 22.6218 29.0896 21.2586C29.1038 21.2728 29.118 21.2586 29.1322 21.2444Z" fill="#C5C8D9"/>
<path d="M20.4268 15.5931V15.5647V15.4795V5.17048C20.4268 5.12788 20.4126 5.09948 20.441 5.05688C23.3236 9.84219 26.2061 14.6133 29.0745 19.3986C29.1029 19.4412 29.1455 19.498 29.1597 19.5548C28.9609 19.4838 28.7763 19.3844 28.5917 19.2992C28.3645 19.1998 28.1231 19.0862 27.8959 18.9868C27.7539 18.9158 27.5977 18.859 27.4557 18.788C27.2143 18.6744 26.9729 18.575 26.7315 18.4614C26.5895 18.4046 26.4475 18.3336 26.3055 18.2626L25.3683 17.8366C25.2121 17.7656 25.0559 17.6946 24.8856 17.6236L24.204 17.3254C24.062 17.2686 23.92 17.1977 23.778 17.1267L22.8408 16.7007C22.6846 16.6297 22.5284 16.5587 22.358 16.4877L21.6764 16.1895C21.5202 16.1185 21.3782 16.0475 21.222 15.9765C20.9522 15.8487 20.6824 15.7209 20.3984 15.6073C20.441 15.5931 20.4268 15.5931 20.4268 15.5931Z" fill="#C5C8D9"/>
</g>
<defs>
<clipPath id="clip0_325_5486">
<rect width="40" height="40" fill="white"/>
</clipPath>
</defs>
</svg>
