<svg width="24" height="24" viewBox="0 0 24 24" fill="none" xmlns="http://www.w3.org/2000/svg">
<g clip-path="url(#clip0_321_5038)">
<path d="M22.7455 16.615L21.2963 21.327L18.4512 20.5788L22.7455 16.615Z" fill="#E4761B" stroke="#E4761B" stroke-width="0.1"/>
<path d="M18.4512 20.5788L21.1953 16.9634L22.7455 16.615L18.4512 20.5788Z" fill="#E4761B" stroke="#E4761B" stroke-width="0.1"/>
<path d="M20.6133 13.0623L22.7456 16.6149L21.1954 16.9633L20.6133 13.0623ZM20.6133 13.0623L21.9853 12.1484L22.7456 16.6149L20.6133 13.0623Z" fill="#F6851B" stroke="#F6851B" stroke-width="0.1"/>
<path d="M18.8672 10.378L22.8111 8.82446L22.6151 9.67549L18.8672 10.378ZM22.4904 10.6979L18.8672 10.378L22.6151 9.67549L22.4904 10.6979Z" fill="#763D16" stroke="#763D16" stroke-width="0.1"/>
<path d="M22.4904 10.6979L21.9855 12.1486L18.8672 10.378L22.4904 10.6979ZM23.2803 9.18429L22.6151 9.67549L22.8111 8.82446L23.2803 9.18429ZM22.4904 10.6979L22.6151 9.67549L23.1437 10.0981L22.4904 10.6979Z" fill="#763D16" stroke="#763D16" stroke-width="0.1"/>
<path d="M15.3906 19.4307L16.3766 19.7334L18.4495 20.5787L15.3906 19.4307Z" fill="#E2761B" stroke="#E2761B" stroke-width="0.1"/>
<path d="M21.985 12.1485L22.4899 10.6978L22.9235 11.0176L21.985 12.1485ZM21.985 12.1485L17.8926 10.852L18.8667 10.3779L21.985 12.1485Z" fill="#763D16" stroke="#763D16" stroke-width="0.1"/>
<path d="M19.8408 5.92871L18.8667 10.378L17.8926 10.8521L19.8408 5.92871Z" fill="#763D16" stroke="#763D16" stroke-width="0.1"/>
<path d="M22.8111 8.82447L18.8672 10.378L19.8413 5.92871L22.8111 8.82447Z" fill="#763D16" stroke="#763D16" stroke-width="0.1"/>
<path d="M19.8398 5.9286L23.956 5.47168L22.8097 8.82437L19.8398 5.9286Z" fill="#763D16" stroke="#763D16" stroke-width="0.1"/>
<path d="M21.985 12.1486L20.6129 13.0624L17.8926 10.8521L21.985 12.1486Z" fill="#F6851B" stroke="#F6851B" stroke-width="0.1"/>
<path d="M23.7778 2.26758L23.956 5.47177L19.8398 5.92869L23.7778 2.26758Z" fill="#763D16" stroke="#763D16" stroke-width="0.1"/>
<path d="M23.7786 2.26758L15.5522 8.01912L15.4453 4.11813L23.7786 2.26758Z" fill="#E2761B" stroke="#E2761B" stroke-width="0.1"/>
<path d="M9.32812 3.64966L15.446 4.11801L15.5529 8.01901L9.32812 3.64966Z" fill="#F6851B" stroke="#F6851B" stroke-width="0.1"/>
<path d="M17.893 10.8521L15.5527 8.01914L19.8412 5.92871L17.893 10.8521Z" fill="#763D16" stroke="#763D16" stroke-width="0.1"/>
<path d="M17.8918 10.8521L20.6122 13.0624L16.793 13.4679L17.8918 10.8521Z" fill="#E4761B" stroke="#E4761B" stroke-width="0.1"/>
<path d="M16.7941 13.4679L15.5527 8.01904L17.893 10.852L16.7941 13.4679Z" fill="#E4761B" stroke="#E4761B" stroke-width="0.1"/>
<path d="M19.8412 5.92869L15.5527 8.01912L23.7791 2.26758L19.8412 5.92869Z" fill="#763D16" stroke="#763D16" stroke-width="0.1"/>
<path d="M9.38057 20.4874L11.3228 22.435L8.67969 20.1218L9.38057 20.4874Z" fill="#C0AD9E" stroke="#C0AD9E" stroke-width="0.1"/>
<path d="M18.4512 20.5788L19.3718 17.2147L21.1953 16.9634L18.4512 20.5788Z" fill="#CD6116" stroke="#CD6116" stroke-width="0.1"/>
<path d="M1.50391 11.1147L4.86575 7.71631L1.9375 10.7092L1.50391 11.1147Z" fill="#E2761B" stroke="#E2761B" stroke-width="0.1"/>
<path d="M21.1955 16.9633L19.3721 17.2146L20.6135 13.0623L21.1955 16.9633ZM15.5529 8.01901L12.2801 7.9162L9.32812 3.64966L15.5529 8.01901Z" fill="#F6851B" stroke="#F6851B" stroke-width="0.1"/>
<path d="M20.6119 13.0623L19.3705 17.2146L19.2695 15.187L20.6119 13.0623Z" fill="#E4751F" stroke="#E4751F" stroke-width="0.1"/>
<path d="M16.793 13.4678L20.6122 13.0623L19.2698 15.187L16.793 13.4678Z" fill="#CD6116" stroke="#CD6116" stroke-width="0.1"/>
<path d="M12.2793 7.91626L15.552 8.01907L16.7934 13.4679L12.2793 7.91626Z" fill="#F6851B" stroke="#F6851B" stroke-width="0.1"/>
<path d="M12.2796 7.91624L3.44738 0.0571289L9.32763 3.6497L12.2796 7.91624ZM9.32169 21.6811L1.64766 23.9657L0.115234 18.3399L9.32169 21.6811Z" fill="#E4761B" stroke="#E4761B" stroke-width="0.1"/>
<path d="M2.64453 12.5198L5.54308 10.3323L7.9724 10.8749L2.64453 12.5198Z" fill="#763D16" stroke="#763D16" stroke-width="0.1"/>
<path d="M7.97228 10.8748L5.54297 10.3322L6.84375 5.16895L7.97228 10.8748Z" fill="#763D16" stroke="#763D16" stroke-width="0.1"/>
<path d="M1.9375 10.7092L5.54287 10.3323L2.64432 12.5198L1.9375 10.7092Z" fill="#763D16" stroke="#763D16" stroke-width="0.1"/>
<path d="M19.2698 15.187L17.773 14.4616L16.793 13.4678L19.2698 15.187Z" fill="#CD6116" stroke="#CD6116" stroke-width="0.1"/>
<path d="M1.939 10.7091L1.68359 9.4126L5.54437 10.3322L1.939 10.7091Z" fill="#763D16" stroke="#763D16" stroke-width="0.1"/>
<path d="M17.4648 16.0952L17.7737 14.4617L19.2705 15.187L17.4648 16.0952Z" fill="#233447" stroke="#233447" stroke-width="0.1"/>
<path d="M19.3715 17.2146L17.4648 16.0952L19.2705 15.187L19.3715 17.2146Z" fill="#F6851B" stroke="#F6851B" stroke-width="0.1"/>
<path d="M5.54276 10.3322L1.68199 9.41264L1.36719 8.32173L5.54276 10.3322ZM6.84354 5.16895L5.54276 10.3322L1.36719 8.32173L6.84354 5.16895ZM6.84354 5.16895L12.2783 7.91621L7.97208 10.8748L6.84354 5.16895Z" fill="#763D16" stroke="#763D16" stroke-width="0.1"/>
<path d="M7.97266 10.8749L12.2789 7.91626L14.1974 13.5536L7.97266 10.8749ZM14.1974 13.5536L8.24588 13.4336L7.97266 10.8749L14.1974 13.5536Z" fill="#E4761B" stroke="#E4761B" stroke-width="0.1"/>
<path d="M2.64453 12.5198L7.9724 10.8749L8.24562 13.4336L2.64453 12.5198ZM16.7928 13.4679L14.1971 13.5536L12.2786 7.91626L16.7928 13.4679Z" fill="#F6851B" stroke="#F6851B" stroke-width="0.1"/>
<path d="M17.773 14.4616L17.4641 16.0951L16.793 13.4678L17.773 14.4616Z" fill="#CD6116" stroke="#CD6116" stroke-width="0.1"/>
<path d="M3.44727 0.0571289L12.2795 7.91624L6.84474 5.16898L3.44727 0.0571289Z" fill="#763D16" stroke="#763D16" stroke-width="0.1"/>
<path d="M0.115234 18.3397L7.56355 18.0427L9.32169 21.681L0.115234 18.3397Z" fill="#E4761B" stroke="#E4761B" stroke-width="0.1"/>
<path d="M9.32064 21.6812L7.5625 18.0429L11.2213 17.8716L9.32064 21.6812Z" fill="#CD6116" stroke="#CD6116" stroke-width="0.1"/>
<path d="M17.4649 16.0952L19.3716 17.2147L20.4229 19.5964L17.4649 16.0952ZM8.24661 13.4336L0.115234 18.3399L2.64552 12.5198L8.24661 13.4336ZM7.56355 18.0429L0.115234 18.3399L8.24661 13.4336L7.56355 18.0429ZM16.7938 13.4679L17.2808 15.1699L14.9287 15.3013L16.7938 13.4679ZM14.9287 15.3013L14.1981 13.5536L16.7938 13.4679L14.9287 15.3013Z" fill="#F6851B" stroke="#F6851B" stroke-width="0.1"/>
<path d="M11.322 22.4351L9.32031 21.6812L16.2816 22.8063L11.322 22.4351Z" fill="#C0AD9E" stroke="#C0AD9E" stroke-width="0.1"/>
<path d="M2.64432 12.5198L1.50391 11.1148L1.9375 10.7092L2.64432 12.5198Z" fill="#763D16" stroke="#763D16" stroke-width="0.1"/>
<path d="M17.0716 21.9724L16.2816 22.8063L9.32031 21.6812L17.0716 21.9724Z" fill="#D7C1B3" stroke="#D7C1B3" stroke-width="0.1"/>
<path d="M17.4458 19.9277L9.32031 21.6812L11.221 17.8716L17.4458 19.9277Z" fill="#E4761B" stroke="#E4761B" stroke-width="0.1"/>
<path d="M9.32031 21.6812L17.4458 19.9277L17.0716 21.9725L9.32031 21.6812Z" fill="#D7C1B3" stroke="#D7C1B3" stroke-width="0.1"/>
<path d="M1.36885 8.32164L1.10156 3.92944L6.8452 5.16885L1.36885 8.32164ZM1.93905 10.7091L1.14908 9.93801L1.68365 9.41255L1.93905 10.7091Z" fill="#763D16" stroke="#763D16" stroke-width="0.1"/>
<path d="M12.8672 14.6844L14.1977 13.5535L14.0076 16.3179L12.8672 14.6844Z" fill="#CD6116" stroke="#CD6116" stroke-width="0.1"/>
<path d="M14.1984 13.5535L12.868 14.6844L10.9316 15.6496L14.1984 13.5535Z" fill="#CD6116" stroke="#CD6116" stroke-width="0.1"/>
<path d="M20.4228 19.5964L20.0605 19.3394L17.4648 16.0952L20.4228 19.5964Z" fill="#F6851B" stroke="#F6851B" stroke-width="0.1"/>
<path d="M10.9308 15.6497L8.24609 13.4336L14.1976 13.5535L10.9308 15.6497Z" fill="#CD6116" stroke="#CD6116" stroke-width="0.1"/>
<path d="M14.0078 16.3179L14.1979 13.5535L14.9285 15.3012L14.0078 16.3179Z" fill="#E4751F" stroke="#E4751F" stroke-width="0.1"/>
<path d="M0.886719 8.75586L1.36783 8.32178L1.68263 9.41269L0.886719 8.75586Z" fill="#763D16" stroke="#763D16" stroke-width="0.1"/>
<path d="M14.0084 16.3178L10.9316 15.6496L12.868 14.6843L14.0084 16.3178Z" fill="#233447" stroke="#233447" stroke-width="0.1"/>
<path d="M6.8452 5.16898L1.10156 3.92957L3.44772 0.0571289L6.8452 5.16898Z" fill="#763D16" stroke="#763D16" stroke-width="0.1"/>
<path d="M16.2819 22.8063L16.6086 23.663L11.3223 22.4351L16.2819 22.8063Z" fill="#C0AD9E" stroke="#C0AD9E" stroke-width="0.1"/>
<path d="M11.2227 17.8715L10.9316 15.6497L14.0084 16.3179L11.2227 17.8715Z" fill="#F6851B" stroke="#F6851B" stroke-width="0.1"/>
<path d="M8.24609 13.4336L10.9308 15.6497L11.2219 17.8715L8.24609 13.4336Z" fill="#E4751F" stroke="#E4751F" stroke-width="0.1"/>
<path d="M14.9277 15.3013L17.2798 15.1699L20.0595 19.3394L14.9277 15.3013ZM8.24556 13.4336L11.2213 17.8715L7.5625 18.0428L8.24556 13.4336Z" fill="#F6851B" stroke="#F6851B" stroke-width="0.1"/>
<path d="M14.9285 15.3013L17.8508 19.5792L14.0078 16.3179L14.9285 15.3013Z" fill="#E4751F" stroke="#E4751F" stroke-width="0.1"/>
<path d="M14.0078 16.3179L17.8508 19.5792L17.4469 19.9276L14.0078 16.3179Z" fill="#F6851B" stroke="#F6851B" stroke-width="0.1"/>
<path d="M17.4474 19.9276L11.2227 17.8715L14.0084 16.3179L17.4474 19.9276ZM20.0609 19.3393L17.8513 19.5792L14.929 15.3013L20.0609 19.3393Z" fill="#F6851B" stroke="#F6851B" stroke-width="0.1"/>
<path d="M20.6429 21.3499L19.6926 23.1833L16.6099 23.663L20.6429 21.3499ZM16.6099 23.663L16.2832 22.8063L17.0732 21.9724L16.6099 23.663Z" fill="#C0AD9E" stroke="#C0AD9E" stroke-width="0.1"/>
<path d="M17.0727 21.9724L17.6548 21.7497L16.6094 23.663L17.0727 21.9724ZM16.6094 23.663L17.6548 21.7497L20.6424 21.3499L16.6094 23.663Z" fill="#C0AD9E" stroke="#C0AD9E" stroke-width="0.1"/>
<path d="M20.0592 19.3394L20.7898 19.7677L18.5684 20.0247L20.0592 19.3394Z" fill="#131316" stroke="#131316" stroke-width="0.1"/>
<path d="M18.5683 20.0247L17.8496 19.5792L20.0592 19.3394L18.5683 20.0247ZM18.3129 20.3617L21.0154 20.0476L20.6412 21.3498L18.3129 20.3617Z" fill="#131316" stroke="#131316" stroke-width="0.1"/>
<path d="M20.642 21.3499L17.6544 21.7497L18.3137 20.3618L20.642 21.3499ZM17.6544 21.7497L17.0723 21.9725L17.4465 19.9278L17.6544 21.7497ZM17.4465 19.9278L17.8504 19.5793L18.5691 20.0248L17.4465 19.9278ZM20.7905 19.7678L21.0162 20.0477L18.3137 20.3618L20.7905 19.7678Z" fill="#131316" stroke="#131316" stroke-width="0.1"/>
<path d="M18.3145 20.3618L18.5699 20.0248L20.7913 19.7678L18.3145 20.3618ZM17.4473 19.9277L18.3145 20.3618L17.6552 21.7497L17.4473 19.9277Z" fill="#131316" stroke="#131316" stroke-width="0.1"/>
<path d="M18.5699 20.0248L18.3145 20.3618L17.4473 19.9277L18.5699 20.0248Z" fill="#131316" stroke="#131316" stroke-width="0.1"/>
</g>
<defs>
<clipPath id="clip0_321_5038">
<rect width="24" height="24" fill="white"/>
</clipPath>
</defs>
</svg>
