<svg width="22" height="22" viewBox="0 0 22 22" fill="none" xmlns="http://www.w3.org/2000/svg">
<path d="M11.9539 0.699553C11.8227 0.283278 11.4368 0.0001241 11.0004 4.07135e-08C10.5639 -0.000123915 10.1778 0.28281 10.0464 0.699011L7.86246 7.61859L1.0007 7.61429C0.562161 7.61401 0.174608 7.8995 0.0448511 8.3184C-0.0849061 8.73731 0.0734113 9.19188 0.435322 9.43955L5.9326 13.2015L3.86555 19.7465C3.73593 20.1569 3.88345 20.6042 4.23179 20.857C4.58013 21.1098 5.05114 21.1113 5.40113 20.8608L10.9999 16.8537L16.594 20.8606C16.9439 21.1112 17.415 21.1098 17.7634 20.8571C18.1119 20.6043 18.2595 20.1569 18.1298 19.7465L16.0629 13.2018L21.5645 9.43975C21.9266 9.19218 22.0851 8.73757 21.9554 8.31857C21.8257 7.89958 21.4381 7.61401 20.9994 7.61429L14.1334 7.61859L11.9539 0.699553Z" fill="white"/>
</svg>
