<svg width="40" height="40" viewBox="0 0 40 40" fill="none" xmlns="http://www.w3.org/2000/svg">
<g clip-path="url(#clip0_325_5520)">
<path d="M39.9651 19.993C39.9651 30.9841 31.0556 39.8935 20.0646 39.8935C9.07391 39.8935 0.164062 30.9841 0.164062 19.993C0.164062 9.00218 9.07391 0.0925293 20.0646 0.0925293C31.0556 0.0925293 39.9651 9.00218 39.9651 19.993Z" fill="#1BA27A"/>
<path d="M29.4043 10.1274H10.5605V14.6767H17.7078V21.3633H22.2571V14.6767H29.4043V10.1274Z" fill="white"/>
<path d="M20.025 22.0757C14.1126 22.0757 9.31913 21.14 9.31913 19.9856C9.31913 18.8314 14.1124 17.8954 20.025 17.8954C25.9374 17.8954 30.7307 18.8314 30.7307 19.9856C30.7307 21.14 25.9374 22.0757 20.025 22.0757ZM32.0459 20.334C32.0459 18.8455 26.664 17.6389 20.025 17.6389C13.3862 17.6389 8.00391 18.8455 8.00391 20.334C8.00391 21.6449 12.1772 22.737 17.7074 22.979V32.5778H22.2562V22.9828C27.829 22.7484 32.0459 21.6517 32.0459 20.334Z" fill="white"/>
</g>
<defs>
<clipPath id="clip0_325_5520">
<rect width="40" height="40" fill="white"/>
</clipPath>
</defs>
</svg>
